<svg width="119" height="119" viewBox="0 0 119 119" fill="none" xmlns="http://www.w3.org/2000/svg">
<circle cx="59.4536" cy="59.4536" r="59.4536" fill="#60A09F"/>
<path d="M94.0144 59.4539C92.8052 59.4539 91.6455 59.9315 90.7905 60.7817C89.9354 61.6318 89.4551 62.7849 89.4551 63.9873C89.4551 72.2456 85.1199 73.7907 76.0963 76.235C72.6312 77.1757 68.6456 78.2599 65.1387 80.2735V59.4539H75.7771C76.9863 59.4539 78.146 58.9762 79.001 58.1261C79.8561 57.2759 80.3364 56.1228 80.3364 54.9205C80.3364 53.7181 79.8561 52.565 79.001 51.7149C78.146 50.8647 76.9863 50.3871 75.7771 50.3871H65.1387V43.5643C68.1807 42.4949 70.7446 40.3906 72.3772 37.6234C74.0098 34.8561 74.606 31.6041 74.0603 28.4421C73.5147 25.2801 71.8624 22.4116 69.3955 20.3438C66.9286 18.2759 63.8059 17.1417 60.5793 17.1417C57.3528 17.1417 54.2301 18.2759 51.7632 20.3438C49.2962 22.4116 47.644 25.2801 47.0984 28.4421C46.5527 31.6041 47.1489 34.8561 48.7815 37.6234C50.4141 40.3906 52.978 42.4949 56.02 43.5643V50.3871H45.3816C44.1724 50.3871 43.0127 50.8647 42.1577 51.7149C41.3026 52.565 40.8223 53.7181 40.8223 54.9205C40.8223 56.1228 41.3026 57.2759 42.1577 58.1261C43.0127 58.9762 44.1724 59.4539 45.3816 59.4539H56.02V80.2735C52.5131 78.2599 48.5275 77.1757 45.0624 76.235C36.0388 73.8096 31.7036 72.2456 31.7036 63.9873C31.7036 62.7849 31.2233 61.6318 30.3682 60.7817C29.5132 59.9315 28.3535 59.4539 27.1443 59.4539C25.9351 59.4539 24.7754 59.9315 23.9204 60.7817C23.0653 61.6318 22.585 62.7849 22.585 63.9873C22.585 79.5406 34.1884 82.6875 42.6612 84.9845C51.6849 87.4287 56.02 88.9738 56.02 97.2322C56.02 98.4345 56.5004 99.5876 57.3554 100.438C58.2105 101.288 59.3701 101.766 60.5793 101.766C61.7886 101.766 62.9482 101.288 63.8033 100.438C64.6583 99.5876 65.1387 98.4345 65.1387 97.2322C65.1387 88.9738 69.4738 87.4287 78.4975 84.9845C86.9702 82.6875 98.5737 79.5406 98.5737 63.9873C98.5737 62.7849 98.0934 61.6318 97.2383 60.7817C96.3833 59.9315 95.2236 59.4539 94.0144 59.4539ZM60.5793 26.2089C61.4811 26.2089 62.3626 26.4748 63.1124 26.973C63.8621 27.4711 64.4465 28.1791 64.7916 29.0075C65.1367 29.8359 65.227 30.7474 65.0511 31.6268C64.8751 32.5062 64.4409 33.3139 63.8033 33.9479C63.1656 34.5819 62.3532 35.0137 61.4688 35.1886C60.5844 35.3636 59.6677 35.2738 58.8346 34.9307C58.0015 34.5875 57.2894 34.0065 56.7884 33.261C56.2874 32.5155 56.02 31.639 56.02 30.7423C56.02 29.54 56.5004 28.3869 57.3554 27.5367C58.2105 26.6866 59.3701 26.2089 60.5793 26.2089Z" fill="white"/>
</svg>
