<svg width="97" height="97" viewBox="0 0 97 97" fill="none" xmlns="http://www.w3.org/2000/svg">
<path d="M48.5416 32.7251C52.8839 32.7251 56.4041 29.2049 56.4041 24.8626C56.4041 20.5202 52.8839 17 48.5416 17C44.1992 17 40.679 20.5202 40.679 24.8626C40.679 29.2049 44.1992 32.7251 48.5416 32.7251Z" fill="#F1E500"/>
<path d="M67.9835 38.3403H28.2419C26.1102 38.3403 24.3821 40.0684 24.3821 42.2001C24.3821 44.3318 26.1102 46.0599 28.2419 46.0599H67.9835C70.1152 46.0599 71.8433 44.3318 71.8433 42.2001C71.8433 40.0684 70.1152 38.3403 67.9835 38.3403Z" fill="#072A78"/>
<path d="M73.7017 54.3513H22.5236C20.3919 54.3513 18.6638 56.0794 18.6638 58.2111C18.6638 60.3428 20.3919 62.0709 22.5236 62.0709H73.7017C75.8334 62.0709 77.5615 60.3428 77.5615 58.2111C77.5615 56.0794 75.8334 54.3513 73.7017 54.3513Z" fill="#072A78"/>
<path d="M67.8405 71.2201H28.3848C26.1742 71.2201 24.3821 73.0122 24.3821 75.2228C24.3821 77.4335 26.1742 79.2256 28.3848 79.2256H67.8405C70.0512 79.2256 71.8433 77.4335 71.8433 75.2228C71.8433 73.0122 70.0512 71.2201 67.8405 71.2201Z" fill="#072A78"/>
</svg>
