<svg width="281" height="278" viewBox="0 0 281 278" fill="none" xmlns="http://www.w3.org/2000/svg">
<rect x="157.204" y="65.79" width="35.6155" height="56.4206" rx="8.81572" fill="#E4B03A"/>
<path d="M104.947 168.575C104.947 163.706 108.894 159.759 113.763 159.759H167.62C172.489 159.759 176.436 163.706 176.436 168.575V250.21H140.692H104.947V168.575Z" fill="#31DDDD"/>
<path d="M160.758 0C165.418 0 169.869 0.694961 174.109 2.08496C178.349 3.47496 182.076 5.44391 185.288 7.99219L270.266 75.4072C273.478 77.9647 275.96 80.921 277.712 84.2754C279.464 87.6298 280.341 91.1606 280.341 94.8672V250.2C280.329 257.854 276.895 264.401 270.038 269.841C263.181 275.28 254.935 278 245.298 278H35.043C25.3946 278.009 17.1418 275.29 10.2852 269.841C3.42863 264.392 8.11595e-05 257.845 2.94437e-05 250.2V27.7998C-0.0115918 20.1642 3.41691 13.6216 10.2852 8.17285C17.1535 2.72408 25.4063 0 35.043 0H160.758ZM35.043 27.7998V250.2H104.999L136.028 277.964H207.478L176.449 250.2H245.298V95.2148L160.319 27.7998H35.043Z" fill="#E2EBF3"/>
<rect x="105.015" y="65.79" width="35.2629" height="56.4206" rx="8.81572" fill="#E4B03A"/>
<rect x="52.4746" y="65.79" width="35.6155" height="56.4206" rx="8.81572" fill="#E4B03A"/>
</svg>
