<svg width="265" height="328" viewBox="0 0 265 328" fill="none" xmlns="http://www.w3.org/2000/svg">
<path d="M131.577 0C21.5154 71.6723 -33.7557 255.776 131.577 255.776C296.91 255.776 241.638 71.6723 131.577 0Z" fill="#FF9601"/>
<path d="M206.028 57.6831C174.267 102.661 158.317 218.195 206.028 218.195C253.738 218.195 237.788 102.661 206.028 57.6831Z" fill="#FF9601"/>
<path d="M56.052 57.6831C24.2913 102.661 8.34167 218.195 56.052 218.195C103.762 218.195 87.8126 102.661 56.052 57.6831Z" fill="#FF9601"/>
<path d="M153.928 251.716C215.28 236.466 200.026 180.474 183.277 135.724C165.945 167.349 137.115 223.286 153.928 251.716Z" fill="#FFC803"/>
<path d="M131.297 255.763C68.1156 257.941 49.8381 195.901 68.1156 159.902C81.0863 193.774 139.658 223.809 131.297 255.763Z" fill="#FFC803"/>
<path d="M131.294 255.765C20.1819 255.765 98.6138 116.331 131.294 98.9016C163.974 116.331 242.405 255.765 131.294 255.765Z" fill="#FFC803"/>
<path d="M251.885 236.481C178.712 259.692 105.539 282.903 32.3662 306.114C28.3012 307.404 24.2366 308.694 20.1716 309.984C24.0045 308.114 27.837 306.243 31.67 304.374C100.665 270.718 169.661 237.064 238.656 203.408C242.489 201.539 246.321 199.668 250.154 197.798L264.08 232.613C260.015 233.903 255.95 235.191 251.885 236.481Z" fill="#581C00"/>
<path d="M12.1955 236.481C85.368 259.692 158.541 282.903 231.714 306.114C235.779 307.404 239.843 308.694 243.908 309.984C240.076 308.114 236.243 306.244 232.41 304.374C163.415 270.718 94.4192 237.064 25.4244 203.408C21.5915 201.539 17.759 199.668 13.926 197.798L0 232.613C4.06504 233.903 8.13045 235.191 12.1955 236.481Z" fill="#581C00"/>
</svg>
